<?xml version="1.0" ?>
<svg viewBox="0 0 64 64"
  xmlns="http://www.w3.org/2000/svg"
  xmlns:xlink="http://www.w3.org/1999/xlink">
  <defs>
    <linearGradient gradientUnits="userSpaceOnUse" id="gradient_ice" x1="4.5" x2="61.5" y1="4.5" y2="61.5">
      <stop offset="0" stop-color="#fff200"/>
      <stop offset="1" stop-color="#cd118c"/>
    </linearGradient>
    <linearGradient id="gradient_ice-3" x1="0" x2="57" xlink:href="#gradient_ice" y1="9" y2="66"/>
    <linearGradient id="gradient_ice-4" x1="9" x2="66" xlink:href="#gradient_ice" y1="0" y2="57"/>
  </defs>
  <g id="money-target-financial-business-finance">
    <path d="M32,19A13,13,0,1,0,45,32,13.015,13.015,0,0,0,32,19Zm0,24A11,11,0,1,1,43,32,11.013,11.013,0,0,1,32,43Z" style="fill:url(#gradient_ice)"/>
    <polygon points="33 23 31 23 31 25 27 25 27 33 35 33 35 37 29 37 29 36 27 36 27 39 31 39 31 41 33 41 33 39 37 39 37 31 29 31 29 27 35 27 35 28 37 28 37 25 33 25 33 23" style="fill:url(#gradient_ice)"/>
    <rect height="2" style="fill:url(#gradient_ice-3)" width="2" x="22" y="31"/>
    <rect height="2" style="fill:url(#gradient_ice-4)" width="2" x="40" y="31"/>
    <path d="M62,31H57.975A26.027,26.027,0,0,0,33,6.025V2H31V6.025A26.027,26.027,0,0,0,6.025,31H2v2H6.025A26.027,26.027,0,0,0,31,57.975V62h2V57.975A26.027,26.027,0,0,0,57.975,33H62ZM33,55.975V48H31v7.975A24.027,24.027,0,0,1,8.025,33H16V31H8.025A24.027,24.027,0,0,1,31,8.025V16h2V8.025A24.027,24.027,0,0,1,55.975,31H48v2h7.975A24.027,24.027,0,0,1,33,55.975Z" style="fill:url(#gradient_ice)"/>
  </g>
</svg>
