<?xml version="1.0" encoding="iso-8859-1"?>
<!-- Generator: Adobe Illustrator 16.0.0, SVG Export Plug-In . SVG Version: 6.00 Build 0)  -->
<!DOCTYPE svg PUBLIC "-//W3C//DTD SVG 1.1//EN" "http://www.w3.org/Graphics/SVG/1.1/DTD/svg11.dtd">
<svg version="1.1" id="Capa_1"
	xmlns="http://www.w3.org/2000/svg"
	xmlns:xlink="http://www.w3.org/1999/xlink" x="0px" y="0px" width="101.333px" height="101.333px" viewBox="0 0 101.333 101.333" style="enable-background:new 0 0 101.333 101.333;" xml:space="preserve">
	<g>
		<path fill="#14B8A6" d="M101.333,16.45l-14.651,3.214l-27.127,39.22l-1.979-1.998l25.365-36.06L31.229,32.7c5.367,2.125,10.495,3.37,16.45,11.676
		h-2.904l0.016,0.154c-4.578-5.893-11.731-9.687-19.771-9.687C11.202,34.842,0,46.045,0,59.864s11.202,25.02,25.02,25.02
		c9.992,0,18.614-5.857,22.625-14.324l2.178,1.905c-2.641,5.298-6.721,8.931-11.742,12.419H53.6l3.56-4.938l4.938,4.938
		l9.659-13.872l-4.866-4.866L101.333,16.45z M25.055,68.69c-4.934,0-8.934-4.002-8.933-8.936c-0.001-4.934,3.999-8.936,8.933-8.936
		c4.935,0,8.935,4.002,8.933,8.936C33.99,64.688,29.99,68.69,25.055,68.69z"/>
	</g>
</svg>
